<svg width="800" height="600" viewBox="-20 -40 840 680" xmlns="http://www.w3.org/2000/svg">
    <rect width="100%" height="100%" x="-20" y="-40" fill="white" /> 
    <text x="10" y="605" font-family="arial" font-size="14" fill="red" text-anchor="end">30</text><text x="10" y="485" font-family="arial" font-size="14" fill="red" text-anchor="end">34</text><text x="10" y="365" font-family="arial" font-size="14" fill="red" text-anchor="end">38</text><text x="10" y="245" font-family="arial" font-size="14" fill="red" text-anchor="end">42</text><text x="10" y="125" font-family="arial" font-size="14" fill="red" text-anchor="end">46</text><text x="10" y="5" font-family="arial" font-size="14" fill="red" text-anchor="end">50</text><text text-anchor="middle" font-family="arial" alignment-baseline="middle" transform="rotate(270, 10, 300)" x="10" y="300" font-size="14" fill="red">Temperature</text><text x="60" y="605" font-family="arial" font-size="14" fill="black" text-anchor="end">0 m</text><text x="60" y="485" font-family="arial" font-size="14" fill="black" text-anchor="end">600 m</text><text x="60" y="365" font-family="arial" font-size="14" fill="black" text-anchor="end">1200 m</text><text x="60" y="245" font-family="arial" font-size="14" fill="black" text-anchor="end">1800 m</text><text x="60" y="125" font-family="arial" font-size="14" fill="black" text-anchor="end">2400 m</text><text x="60" y="5" font-family="arial" font-size="14" fill="black" text-anchor="end">3000 m</text><text text-anchor="middle" font-family="arial" alignment-baseline="middle" transform="rotate(270, 30, 300)" x="30" y="300" font-size="14" fill="black">Elevation</text>
    <line x1="70" y1="600" x2="800" y2="600" stroke="black"/><text x="70" y="625" font-family="arial" font-size="14" text-anchor="middle">02:42</text>
<line x1="70" x2="70"  y1="600" y2="595" stroke="black"/>
<text x="313.33333333333" y="625" font-family="arial" font-size="14" text-anchor="middle">03:42</text>
<line x1="313.33333333333" x2="313.33333333333"  y1="600" y2="595" stroke="black"/>
<text x="556.66666666667" y="625" font-family="arial" font-size="14" text-anchor="middle">04:42</text>
<line x1="556.66666666667" x2="556.66666666667"  y1="600" y2="595" stroke="black"/>
<text x="800" y="625" font-family="arial" font-size="14" text-anchor="middle">05:42</text>
<line x1="800" x2="800"  y1="600" y2="595" stroke="black"/>
    <text x="435" y="630" font-family="arial" font-size="14" text-anchor="middle">Time</text>
    <line x1="70" y1="600" x2="800" y2="600" stroke="#ccc" stroke-width="1"/><line x1="70" y1="480" x2="800" y2="480" stroke="#ccc" stroke-width="1"/><line x1="70" y1="360" x2="800" y2="360" stroke="#ccc" stroke-width="1"/><line x1="70" y1="240" x2="800" y2="240" stroke="#ccc" stroke-width="1"/><line x1="70" y1="120" x2="800" y2="120" stroke="#ccc" stroke-width="1"/><line x1="70" y1="0" x2="800" y2="0" stroke="#ccc" stroke-width="1"/>
    <rect x="70" y="60" width="730" height="270" fill="red" fill-opacity="0.3" />
<text x="75" y="320" font-family="arial" font-size="14" fill="red" text-anchor="start">Too hot</text><rect x="70" y="330" width="730" height="90" fill="green" fill-opacity="0.3" />
<text x="75" y="410" font-family="arial" font-size="14" fill="green" text-anchor="start">Ideal</text><rect x="70" y="420" width="730" height="120" fill="blue" fill-opacity="0.3" />
<text x="75" y="530" font-family="arial" font-size="14" fill="blue" text-anchor="start">Too cold</text><rect x="556.66666666667" width="243.33333333333" height="600" fill="blue" fill-opacity="0.3" />
<text x="561.66666666667" y="590" font-family="arial" font-size="14" fill="blue" text-anchor="start">Last hour</text>
        <polygon points="70,381 313.33333333333,366 556.66666666667,360 800,234 800,600 70,600 70,219" fill="rgba(0, 0, 0, 0)" stroke="none"/>
    <polyline points="70,381 313.33333333333,366 556.66666666667,360 800,234" fill="none" stroke="#FF0000" stroke-width="5"/>
        <circle cx="70" cy="381" r="0" fill="#000" />    <circle cx="313.33333333333" cy="366" r="0" fill="#000" />    <circle cx="556.66666666667" cy="360" r="0" fill="#000" />    <circle cx="800" cy="234" r="0" fill="#000" />    <polygon points="70,600 313.33333333333,420 556.66666666667,240 800,160 800,600 70,600 70,0" fill="rgba(0, 0, 0, 0)" stroke="none"/>
    <polyline points="70,600 313.33333333333,420 556.66666666667,240 800,160" fill="none" stroke="black" stroke-width="5"/>
        <circle cx="70" cy="600" r="0" fill="#000" />    <circle cx="313.33333333333" cy="420" r="0" fill="#000" />    <circle cx="556.66666666667" cy="240" r="0" fill="#000" />    <circle cx="800" cy="160" r="0" fill="#000" />
    <line x1="70" y1="60" stroke-dasharray="20,20" x2="800" y2="60" stroke="red" stroke-width="3"/>
<text x="75" y="77" font-family="arial" font-size="14"  fill="red" text-anchor="start">Critical Hot</text><line x1="70" y1="540" stroke-dasharray="20,20" x2="800" y2="540" stroke="blue" stroke-width="3"/>
<text x="75" y="557" font-family="arial" font-size="14"  fill="blue" text-anchor="start">Critical Cold</text><line x1="435" x2="435" y1="0" y2="600" stroke-dasharray="" stroke="green" stroke-width="2"/>
<text x="442" y="590" font-family="arial" font-size="14" fill="green" text-anchor="start">Halfway</text>
</svg>