<svg width="800" height="600"  xmlns="http://www.w3.org/2000/svg">
    <rect width="800" height="600"  fill="white" /> 
    <text x="45" y="570" font-family="arial" font-size="14" fill="red" text-anchor="end">0</text><text x="45" y="460" font-family="arial" font-size="14" fill="red" text-anchor="end">10</text><text x="45" y="350" font-family="arial" font-size="14" fill="red" text-anchor="end">20</text><text x="45" y="240" font-family="arial" font-size="14" fill="red" text-anchor="end">30</text><text x="45" y="130" font-family="arial" font-size="14" fill="red" text-anchor="end">40</text><text x="45" y="20" font-family="arial" font-size="14" fill="red" text-anchor="end">50</text><text text-anchor="middle" font-family="arial" alignment-baseline="middle" transform="rotate(270, 20, 275)" x="20" y="275" font-size="14" fill="red">Temperature</text><text x="120" y="570" font-family="arial" font-size="14" fill="black" text-anchor="end">0 m</text><text x="120" y="460" font-family="arial" font-size="14" fill="black" text-anchor="end">600 m</text><text x="120" y="350" font-family="arial" font-size="14" fill="black" text-anchor="end">1200 m</text><text x="120" y="240" font-family="arial" font-size="14" fill="black" text-anchor="end">1800 m</text><text x="120" y="130" font-family="arial" font-size="14" fill="black" text-anchor="end">2400 m</text><text x="120" y="20" font-family="arial" font-size="14" fill="black" text-anchor="end">3000 m</text><text text-anchor="middle" font-family="arial" alignment-baseline="middle" transform="rotate(270, 65, 275)" x="65" y="275" font-size="14" fill="black">Elevation</text>
    <line x1="130" y1="565" x2="770" y2="565" stroke="black"/><text x="130" y="590" font-family="arial" font-size="14" text-anchor="middle">02:42</text>
<line x1="130" x2="130" y1="560" y2="560" stroke="black"/><text x="343.33333333333" y="590" font-family="arial" font-size="14" text-anchor="middle">03:42</text>
<line x1="343.33333333333" x2="343.33333333333" y1="560" y2="560" stroke="black"/><text x="556.66666666667" y="590" font-family="arial" font-size="14" text-anchor="middle">04:42</text>
<line x1="556.66666666667" x2="556.66666666667" y1="560" y2="560" stroke="black"/><text x="770" y="590" font-family="arial" font-size="14" text-anchor="middle">05:42</text>
<line x1="770" x2="770" y1="560" y2="560" stroke="black"/>    <text x="450" y="595" font-family="arial" font-size="14" text-anchor="middle">Time</text>
    <line x1="130" y1="565" x2="770" y2="565" stroke="#ccc" stroke-dasharray="" stroke-width="1" /><line x1="130" y1="455" x2="770" y2="455" stroke="#ccc" stroke-dasharray="" stroke-width="1" /><line x1="130" y1="345" x2="770" y2="345" stroke="#ccc" stroke-dasharray="" stroke-width="1" /><line x1="130" y1="235" x2="770" y2="235" stroke="#ccc" stroke-dasharray="" stroke-width="1" /><line x1="130" y1="125" x2="770" y2="125" stroke="#ccc" stroke-dasharray="" stroke-width="1" /><line x1="130" y1="15" x2="770" y2="15" stroke="#ccc" stroke-dasharray="" stroke-width="1" />
    <rect x="130" y="70" width="640" height="247.5" fill="red" fill-opacity="0.3" stroke="none" stroke-width="0" rx="0" ry="0"><title></title></rect>
<text x="135" y="307.5" font-family="arial" font-size="14" fill="red" stroke="none" stroke-width="0" text-anchor="start" dominant-baseline="alphabetic">Too hot</text><rect x="130" y="317.5" width="640" height="82.5" fill="green" fill-opacity="0.3" stroke="none" stroke-width="0" rx="0" ry="0"><title></title></rect>
<text x="135" y="390" font-family="arial" font-size="14" fill="green" stroke="none" stroke-width="0" text-anchor="start" dominant-baseline="alphabetic">Ideal</text><rect x="130" y="400" width="640" height="110" fill="blue" fill-opacity="0.3" stroke="none" stroke-width="0" rx="0" ry="0"><title></title></rect>
<text x="135" y="500" font-family="arial" font-size="14" fill="blue" stroke="none" stroke-width="0" text-anchor="start" dominant-baseline="alphabetic">Too cold</text><rect x="556.66666666667" y="15" width="213.33333333333" height="550" fill="blue" fill-opacity="0.3" stroke="none" stroke-width="0" rx="0" ry="0"><title></title></rect>
<text x="561.66666666667" y="555" font-family="arial" font-size="14" fill="blue" stroke="none" stroke-width="0" text-anchor="start" dominant-baseline="alphabetic">Last hour</text>
    <polyline points="130,364.25 343.33333333333,350.5 556.66666666667,345 770,229.5" fill="none" stroke="#FF0000" stroke-width="5" />
<circle cx="130" cy="364.25" r="10" fill="rgba(0, 0, 0, 0)" stroke="none" stroke-width="0"><title>37.3</title></circle><circle cx="343.33333333333" cy="350.5" r="10" fill="rgba(0, 0, 0, 0)" stroke="none" stroke-width="0"><title>37.8</title></circle><circle cx="556.66666666667" cy="345" r="10" fill="rgba(0, 0, 0, 0)" stroke="none" stroke-width="0"><title>38</title></circle><circle cx="770" cy="229.5" r="10" fill="rgba(0, 0, 0, 0)" stroke="none" stroke-width="0"><title>42.2</title></circle><polyline points="130,565 343.33333333333,400 556.66666666667,235 770,161.66666666667" fill="none" stroke="black" stroke-width="5" />
<circle cx="130" cy="565" r="10" fill="rgba(0, 0, 0, 0)" stroke="none" stroke-width="0"><title>0</title></circle><circle cx="343.33333333333" cy="400" r="10" fill="rgba(0, 0, 0, 0)" stroke="none" stroke-width="0"><title>900</title></circle><circle cx="556.66666666667" cy="235" r="10" fill="rgba(0, 0, 0, 0)" stroke="none" stroke-width="0"><title>1800</title></circle><circle cx="770" cy="161.66666666667" r="10" fill="rgba(0, 0, 0, 0)" stroke="none" stroke-width="0"><title>2200</title></circle>
    <line x1="130" y1="70" x2="770" y2="70" stroke="red" stroke-dasharray="20,20" stroke-width="3" />
<text x="135" y="87" font-family="arial" font-size="14" fill="red" stroke="none" stroke-width="0" text-anchor="start" dominant-baseline="alphabetic">Critical Hot</text><line x1="130" y1="510" x2="770" y2="510" stroke="blue" stroke-dasharray="20,20" stroke-width="3" />
<text x="135" y="527" font-family="arial" font-size="14" fill="blue" stroke="none" stroke-width="0" text-anchor="start" dominant-baseline="alphabetic">Critical Cold</text><circle cx="343.33333333333" cy="198.33333333333" r="10" fill="white" stroke="red" stroke-width="4"><title>2000</title></circle>
<rect x="282.42424242424" y="146.9696969697" width="121.81818181818" height="30" fill="red" fill-opacity="1" stroke="" stroke-width="0" rx="0" ry="0"><title></title></rect>
<text x="343.33333333333" y="168.33333333333" font-family="arial" font-size="14" fill="white" stroke="none" stroke-width="0" text-anchor="middle" dominant-baseline="alphabetic">Point annotation</text><line x1="450" y1="565" x2="450" y2="15" stroke="green" stroke-dasharray="" stroke-width="2" />
<text x="457" y="555" font-family="arial" font-size="14" fill="green" stroke="none" stroke-width="0" text-anchor="start" dominant-baseline="alphabetic">Halfway</text>
</svg>