<svg width="800" height="600" viewBox="-20 -40 840 680" xmlns="http://www.w3.org/2000/svg">
    <rect width="100%" height="100%" x="-20" y="-40" fill="white" /> 
    <text x="75" y="605" font-family="arial" font-size="14" fill="black" text-anchor="end">€ 120.000,00</text><text x="75" y="485" font-family="arial" font-size="14" fill="black" text-anchor="end">€ 140.000,00</text><text x="75" y="365" font-family="arial" font-size="14" fill="black" text-anchor="end">€ 160.000,00</text><text x="75" y="245" font-family="arial" font-size="14" fill="black" text-anchor="end">€ 180.000,00</text><text x="75" y="125" font-family="arial" font-size="14" fill="black" text-anchor="end">€ 200.000,00</text><text x="75" y="5" font-family="arial" font-size="14" fill="black" text-anchor="end">€ 220.000,00</text><text text-anchor="middle" font-family="arial" alignment-baseline="middle" transform="rotate(270, 10, 300)" x="10" y="300" font-size="14" fill="black"></text>
    <line x1="85" y1="600" x2="800" y2="600" stroke="black"/>    <text x="442.5" y="630" font-family="arial" font-size="14" text-anchor="middle"></text>
    <line x1="85" y1="600" x2="800" y2="600" stroke="#ccc" stroke-width="1"/><line x1="85" y1="480" x2="800" y2="480" stroke="#ccc" stroke-width="1"/><line x1="85" y1="360" x2="800" y2="360" stroke="#ccc" stroke-width="1"/><line x1="85" y1="240" x2="800" y2="240" stroke="#ccc" stroke-width="1"/><line x1="85" y1="120" x2="800" y2="120" stroke="#ccc" stroke-width="1"/><line x1="85" y1="0" x2="800" y2="0" stroke="#ccc" stroke-width="1"/>
    
        <rect x="106.5" y="-13.806" width="100" height="613.806" fill="lightgreen">
        <title>222301</title>
    </rect>
    <text x="156.5" y="630" font-family="arial" font-size="14" fill="#333" text-anchor="middle">Jan</text>    <rect x="249.5" y="184.548" width="100" height="415.452" fill="yellow">
        <title>189242</title>
    </rect>
    <text x="299.5" y="630" font-family="arial" font-size="14" fill="#333" text-anchor="middle">Feb</text>    <rect x="392.5" y="450.468" width="100" height="149.532" fill="red">
        <title>144922</title>
    </rect>
    <text x="442.5" y="630" font-family="arial" font-size="14" fill="#333" text-anchor="middle">March</text>    <rect x="535.5" y="-13.806" width="100" height="613.806" fill="lightgreen">
        <title>222301</title>
    </rect>
    <text x="585.5" y="630" font-family="arial" font-size="14" fill="#333" text-anchor="middle">Apr</text>    <rect x="678.5" y="-13.806" width="100" height="613.806" fill="lightgreen">
        <title>222301</title>
    </rect>
    <text x="728.5" y="630" font-family="arial" font-size="14" fill="#333" text-anchor="middle">May</text>
    <line x1="85" y1="120" stroke-dasharray="" x2="800" y2="120" stroke="green" stroke-width="2"/>
<text x="90" y="138" font-family="arial" font-size="14"  fill="green" text-anchor="start">Target</text><line x1="85" y1="420" stroke-dasharray="" x2="800" y2="420" stroke="red" stroke-width="2"/>
<text x="90" y="438" font-family="arial" font-size="14"  fill="red" text-anchor="start">Loss</text>
</svg>