<svg width="800" height="600" viewBox="-20 -40 840 680" xmlns="http://www.w3.org/2000/svg">
    <rect width="840" height="680" x="-20" y="-40" fill="white" /> 
    <text x="85" y="605" font-family="arial" font-size="14" fill="black" text-anchor="end">€ 120.000,00</text><text x="85" y="485" font-family="arial" font-size="14" fill="black" text-anchor="end">€ 140.000,00</text><text x="85" y="365" font-family="arial" font-size="14" fill="black" text-anchor="end">€ 160.000,00</text><text x="85" y="245" font-family="arial" font-size="14" fill="black" text-anchor="end">€ 180.000,00</text><text x="85" y="125" font-family="arial" font-size="14" fill="black" text-anchor="end">€ 200.000,00</text><text x="85" y="5" font-family="arial" font-size="14" fill="black" text-anchor="end">€ 220.000,00</text><text text-anchor="middle" font-family="arial" alignment-baseline="middle" transform="rotate(270, 0, 300)" x="0" y="300" font-size="14" fill="black"></text>
    <line x1="95" y1="600" x2="800" y2="600" stroke="black"/>    <text x="447.5" y="630" font-family="arial" font-size="14" text-anchor="middle"></text>
    <line x1="95" y1="600" x2="800" y2="600" stroke="#ccc" stroke-dasharray="" stroke-width="1" /><line x1="95" y1="480" x2="800" y2="480" stroke="#ccc" stroke-dasharray="" stroke-width="1" /><line x1="95" y1="360" x2="800" y2="360" stroke="#ccc" stroke-dasharray="" stroke-width="1" /><line x1="95" y1="240" x2="800" y2="240" stroke="#ccc" stroke-dasharray="" stroke-width="1" /><line x1="95" y1="120" x2="800" y2="120" stroke="#ccc" stroke-dasharray="" stroke-width="1" /><line x1="95" y1="0" x2="800" y2="0" stroke="#ccc" stroke-dasharray="" stroke-width="1" />
    
    <rect x="115.5" y="-13.806" width="100" height="613.806" fill="lightgreen" fill-opacity="1" stroke="none" stroke-width="0" rx="0" ry="0"><title>222301</title></rect>
<text x="165.5" y="630" font-family="arial" font-size="14" fill="#333" stroke="none" stroke-width="0" text-anchor="middle" dominant-baseline="alphabetic">Jan</text><rect x="256.5" y="184.548" width="100" height="415.452" fill="yellow" fill-opacity="1" stroke="none" stroke-width="0" rx="0" ry="0"><title>189242</title></rect>
<text x="306.5" y="630" font-family="arial" font-size="14" fill="#333" stroke="none" stroke-width="0" text-anchor="middle" dominant-baseline="alphabetic">Feb</text><rect x="397.5" y="450.468" width="100" height="149.532" fill="red" fill-opacity="1" stroke="none" stroke-width="0" rx="0" ry="0"><title>144922</title></rect>
<text x="447.5" y="630" font-family="arial" font-size="14" fill="#333" stroke="none" stroke-width="0" text-anchor="middle" dominant-baseline="alphabetic">March</text><rect x="538.5" y="-13.806" width="100" height="613.806" fill="lightgreen" fill-opacity="1" stroke="none" stroke-width="0" rx="0" ry="0"><title>222301</title></rect>
<text x="588.5" y="630" font-family="arial" font-size="14" fill="#333" stroke="none" stroke-width="0" text-anchor="middle" dominant-baseline="alphabetic">Apr</text><rect x="679.5" y="-13.806" width="100" height="613.806" fill="lightgreen" fill-opacity="1" stroke="none" stroke-width="0" rx="0" ry="0"><title>222301</title></rect>
<text x="729.5" y="630" font-family="arial" font-size="14" fill="#333" stroke="none" stroke-width="0" text-anchor="middle" dominant-baseline="alphabetic">May</text>
    <line x1="95" y1="120" x2="800" y2="120" stroke="green" stroke-dasharray="" stroke-width="2" />
<text x="100" y="138" font-family="arial" font-size="14" fill="green" stroke="none" stroke-width="0" text-anchor="start" dominant-baseline="alphabetic">Target</text><line x1="95" y1="420" x2="800" y2="420" stroke="red" stroke-dasharray="" stroke-width="2" />
<text x="100" y="438" font-family="arial" font-size="14" fill="red" stroke="none" stroke-width="0" text-anchor="start" dominant-baseline="alphabetic">Loss</text>
</svg>