<svg width="800" height="600"  xmlns="http://www.w3.org/2000/svg">
    <rect width="800" height="600"  fill="white" /> 
    <text x="45" y="555" font-family="arial" font-size="14" fill="red" text-anchor="end">0</text><text x="45" y="448" font-family="arial" font-size="14" fill="red" text-anchor="end">10</text><text x="45" y="341" font-family="arial" font-size="14" fill="red" text-anchor="end">20</text><text x="45" y="234" font-family="arial" font-size="14" fill="red" text-anchor="end">30</text><text x="45" y="127" font-family="arial" font-size="14" fill="red" text-anchor="end">40</text><text x="45" y="20" font-family="arial" font-size="14" fill="red" text-anchor="end">50</text><text text-anchor="middle" font-family="arial" alignment-baseline="middle" transform="rotate(270, 20, 267.5)" x="20" y="267.5" font-size="14" fill="red">Temperature</text><text x="120" y="555" font-family="arial" font-size="14" fill="black" text-anchor="end">0 m</text><text x="120" y="448" font-family="arial" font-size="14" fill="black" text-anchor="end">600 m</text><text x="120" y="341" font-family="arial" font-size="14" fill="black" text-anchor="end">1200 m</text><text x="120" y="234" font-family="arial" font-size="14" fill="black" text-anchor="end">1800 m</text><text x="120" y="127" font-family="arial" font-size="14" fill="black" text-anchor="end">2400 m</text><text x="120" y="20" font-family="arial" font-size="14" fill="black" text-anchor="end">3000 m</text><text text-anchor="middle" font-family="arial" alignment-baseline="middle" transform="rotate(270, 65, 267.5)" x="65" y="267.5" font-size="14" fill="black">Elevation</text>
    <line x1="130" y1="550" x2="770" y2="550" stroke="black"/><text x="130" y="575" font-family="arial" font-size="14" text-anchor="middle">02:42</text>
<line x1="130" x2="130" y1="545" y2="545" stroke="black"/><text x="343.33333333333" y="575" font-family="arial" font-size="14" text-anchor="middle">03:42</text>
<line x1="343.33333333333" x2="343.33333333333" y1="545" y2="545" stroke="black"/><text x="556.66666666667" y="575" font-family="arial" font-size="14" text-anchor="middle">04:42</text>
<line x1="556.66666666667" x2="556.66666666667" y1="545" y2="545" stroke="black"/><text x="770" y="575" font-family="arial" font-size="14" text-anchor="middle">05:42</text>
<line x1="770" x2="770" y1="545" y2="545" stroke="black"/>    <text x="450" y="590" font-family="arial" font-size="14" text-anchor="middle">Time</text>
    <line x1="130" y1="550" x2="770" y2="550" stroke="#ccc" stroke-dasharray="" stroke-width="1" /><line x1="130" y1="443" x2="770" y2="443" stroke="#ccc" stroke-dasharray="" stroke-width="1" /><line x1="130" y1="336" x2="770" y2="336" stroke="#ccc" stroke-dasharray="" stroke-width="1" /><line x1="130" y1="229" x2="770" y2="229" stroke="#ccc" stroke-dasharray="" stroke-width="1" /><line x1="130" y1="122" x2="770" y2="122" stroke="#ccc" stroke-dasharray="" stroke-width="1" /><line x1="130" y1="15" x2="770" y2="15" stroke="#ccc" stroke-dasharray="" stroke-width="1" />
    <rect x="130" y="68.5" width="640" height="240.75" fill="red" fill-opacity="0.3" stroke="none" stroke-width="0" rx="0" ry="0"><title></title></rect>
<text x="135" y="299.25" font-family="arial" font-size="14" fill="red" stroke="none" stroke-width="0" text-anchor="start" dominant-baseline="alphabetic">Too hot</text><rect x="130" y="309.25" width="640" height="80.25" fill="green" fill-opacity="0.3" stroke="none" stroke-width="0" rx="0" ry="0"><title></title></rect>
<text x="135" y="379.5" font-family="arial" font-size="14" fill="green" stroke="none" stroke-width="0" text-anchor="start" dominant-baseline="alphabetic">Ideal</text><rect x="130" y="389.5" width="640" height="107" fill="blue" fill-opacity="0.3" stroke="none" stroke-width="0" rx="0" ry="0"><title></title></rect>
<text x="135" y="486.5" font-family="arial" font-size="14" fill="blue" stroke="none" stroke-width="0" text-anchor="start" dominant-baseline="alphabetic">Too cold</text><rect x="556.66666666667" y="15" width="213.33333333333" height="535" fill="blue" fill-opacity="0.3" stroke="none" stroke-width="0" rx="0" ry="0"><title></title></rect>
<text x="561.66666666667" y="540" font-family="arial" font-size="14" fill="blue" stroke="none" stroke-width="0" text-anchor="start" dominant-baseline="alphabetic">Last hour</text>
    <polyline points="130,354.725 343.33333333333,341.35 556.66666666667,336 770,223.65" fill="none" stroke="#FF0000" stroke-width="5" />
<circle cx="130" cy="354.725" r="10" fill="rgba(0, 0, 0, 0)" stroke="none" stroke-width="0"><title>37.3</title></circle><circle cx="343.33333333333" cy="341.35" r="10" fill="rgba(0, 0, 0, 0)" stroke="none" stroke-width="0"><title>37.8</title></circle><circle cx="556.66666666667" cy="336" r="10" fill="rgba(0, 0, 0, 0)" stroke="none" stroke-width="0"><title>38</title></circle><circle cx="770" cy="223.65" r="10" fill="rgba(0, 0, 0, 0)" stroke="none" stroke-width="0"><title>42.2</title></circle><polyline points="130,550 343.33333333333,389.5 556.66666666667,229 770,157.66666666667" fill="none" stroke="black" stroke-width="5" />
<circle cx="130" cy="550" r="10" fill="rgba(0, 0, 0, 0)" stroke="none" stroke-width="0"><title>0</title></circle><circle cx="343.33333333333" cy="389.5" r="10" fill="rgba(0, 0, 0, 0)" stroke="none" stroke-width="0"><title>900</title></circle><circle cx="556.66666666667" cy="229" r="10" fill="rgba(0, 0, 0, 0)" stroke="none" stroke-width="0"><title>1800</title></circle><circle cx="770" cy="157.66666666667" r="10" fill="rgba(0, 0, 0, 0)" stroke="none" stroke-width="0"><title>2200</title></circle>
    <line x1="130" y1="68.5" x2="770" y2="68.5" stroke="red" stroke-dasharray="20,20" stroke-width="3" />
<text x="135" y="85.5" font-family="arial" font-size="14" fill="red" stroke="none" stroke-width="0" text-anchor="start" dominant-baseline="alphabetic">Critical Hot</text><line x1="130" y1="496.5" x2="770" y2="496.5" stroke="blue" stroke-dasharray="20,20" stroke-width="3" />
<text x="135" y="513.5" font-family="arial" font-size="14" fill="blue" stroke="none" stroke-width="0" text-anchor="start" dominant-baseline="alphabetic">Critical Cold</text><circle cx="343.33333333333" cy="193.33333333333" r="10" fill="white" stroke="red" stroke-width="4"><title>2000</title></circle>
<rect x="282.42424242424" y="141.9696969697" width="121.81818181818" height="30" fill="red" fill-opacity="1" stroke="" stroke-width="0" rx="0" ry="0"><title></title></rect>
<text x="343.33333333333" y="163.33333333333" font-family="arial" font-size="14" fill="white" stroke="none" stroke-width="0" text-anchor="middle" dominant-baseline="alphabetic">Point annotation</text><line x1="450" y1="550" x2="450" y2="15" stroke="green" stroke-dasharray="" stroke-width="2" />
<text x="457" y="540" font-family="arial" font-size="14" fill="green" stroke="none" stroke-width="0" text-anchor="start" dominant-baseline="alphabetic">Halfway</text>
</svg>