<svg width="800" height="600"  xmlns="http://www.w3.org/2000/svg">
    <rect width="800" height="600"  fill="white" /> 
    <text x="110" y="570" font-family="arial" font-size="14" fill="black" text-anchor="end">€ 0,00</text><text x="110" y="460" font-family="arial" font-size="14" fill="black" text-anchor="end">€ 46.000,00</text><text x="110" y="350" font-family="arial" font-size="14" fill="black" text-anchor="end">€ 92.000,00</text><text x="110" y="240" font-family="arial" font-size="14" fill="black" text-anchor="end">€ 138.000,00</text><text x="110" y="130" font-family="arial" font-size="14" fill="black" text-anchor="end">€ 184.000,00</text><text x="110" y="20" font-family="arial" font-size="14" fill="black" text-anchor="end">€ 230.000,00</text><text text-anchor="middle" font-family="arial" alignment-baseline="middle" transform="rotate(270, 20, 275)" x="20" y="275" font-size="14" fill="black"></text>
    <line x1="120" y1="565" x2="770" y2="565" stroke="black"/>    <text x="445" y="595" font-family="arial" font-size="14" text-anchor="middle"></text>
    <line x1="120" y1="565" x2="770" y2="565" stroke="#ccc" stroke-dasharray="" stroke-width="1" /><line x1="120" y1="455" x2="770" y2="455" stroke="#ccc" stroke-dasharray="" stroke-width="1" /><line x1="120" y1="345" x2="770" y2="345" stroke="#ccc" stroke-dasharray="" stroke-width="1" /><line x1="120" y1="235" x2="770" y2="235" stroke="#ccc" stroke-dasharray="" stroke-width="1" /><line x1="120" y1="125" x2="770" y2="125" stroke="#ccc" stroke-dasharray="" stroke-width="1" /><line x1="120" y1="15" x2="770" y2="15" stroke="#ccc" stroke-dasharray="" stroke-width="1" />
    
    <rect x="135" y="53.495" width="100" height="511.505" fill="lightgreen" fill-opacity="1" stroke="none" stroke-width="0" rx="0" ry="0"><title>222301</title></rect>
<text x="185" y="595" font-family="arial" font-size="14" fill="#333" stroke="none" stroke-width="0" text-anchor="middle" dominant-baseline="alphabetic">Jan</text><rect x="265" y="218.79" width="100" height="346.21" fill="yellow" fill-opacity="1" stroke="none" stroke-width="0" rx="0" ry="0"><title>189242</title></rect>
<text x="315" y="595" font-family="arial" font-size="14" fill="#333" stroke="none" stroke-width="0" text-anchor="middle" dominant-baseline="alphabetic">Feb</text><rect x="395" y="440.39" width="100" height="124.61" fill="red" fill-opacity="1" stroke="none" stroke-width="0" rx="0" ry="0"><title>144922</title></rect>
<text x="445" y="595" font-family="arial" font-size="14" fill="#333" stroke="none" stroke-width="0" text-anchor="middle" dominant-baseline="alphabetic">March</text><rect x="525" y="53.495" width="100" height="511.505" fill="lightgreen" fill-opacity="1" stroke="none" stroke-width="0" rx="0" ry="0"><title>222301</title></rect>
<text x="575" y="595" font-family="arial" font-size="14" fill="#333" stroke="none" stroke-width="0" text-anchor="middle" dominant-baseline="alphabetic">Apr</text><rect x="655" y="53.495" width="100" height="511.505" fill="lightgreen" fill-opacity="1" stroke="none" stroke-width="0" rx="0" ry="0"><title>222301</title></rect>
<text x="705" y="595" font-family="arial" font-size="14" fill="#333" stroke="none" stroke-width="0" text-anchor="middle" dominant-baseline="alphabetic">May</text>
    <line x1="120" y1="165" x2="770" y2="165" stroke="green" stroke-dasharray="" stroke-width="2" />
<text x="125" y="183" font-family="arial" font-size="14" fill="green" stroke="none" stroke-width="0" text-anchor="start" dominant-baseline="alphabetic">Target</text><line x1="120" y1="415" x2="770" y2="415" stroke="red" stroke-dasharray="" stroke-width="2" />
<text x="125" y="433" font-family="arial" font-size="14" fill="red" stroke="none" stroke-width="0" text-anchor="start" dominant-baseline="alphabetic">Loss</text>
</svg>