<svg width="800" height="600"  xmlns="http://www.w3.org/2000/svg">
    <rect width="800" height="600"  fill="white" /> 
    <text x="110" y="555" font-family="arial" font-size="14" fill="black" text-anchor="end">€ 0,00</text><text x="110" y="448" font-family="arial" font-size="14" fill="black" text-anchor="end">€ 46.000,00</text><text x="110" y="341" font-family="arial" font-size="14" fill="black" text-anchor="end">€ 92.000,00</text><text x="110" y="234" font-family="arial" font-size="14" fill="black" text-anchor="end">€ 138.000,00</text><text x="110" y="127" font-family="arial" font-size="14" fill="black" text-anchor="end">€ 184.000,00</text><text x="110" y="20" font-family="arial" font-size="14" fill="black" text-anchor="end">€ 230.000,00</text><text text-anchor="middle" font-family="arial" alignment-baseline="middle" transform="rotate(270, 20, 267.5)" x="20" y="267.5" font-size="14" fill="black"></text>
    <line x1="120" y1="550" x2="770" y2="550" stroke="black"/>    <text x="445" y="590" font-family="arial" font-size="14" text-anchor="middle"></text>
    <line x1="120" y1="550" x2="770" y2="550" stroke="#ccc" stroke-dasharray="" stroke-width="1" /><line x1="120" y1="443" x2="770" y2="443" stroke="#ccc" stroke-dasharray="" stroke-width="1" /><line x1="120" y1="336" x2="770" y2="336" stroke="#ccc" stroke-dasharray="" stroke-width="1" /><line x1="120" y1="229" x2="770" y2="229" stroke="#ccc" stroke-dasharray="" stroke-width="1" /><line x1="120" y1="122" x2="770" y2="122" stroke="#ccc" stroke-dasharray="" stroke-width="1" /><line x1="120" y1="15" x2="770" y2="15" stroke="#ccc" stroke-dasharray="" stroke-width="1" />
    
    <rect x="135" y="52.445136363636" width="100" height="497.55486363636" fill="lightgreen" fill-opacity="1" stroke="none" stroke-width="0" rx="0" ry="0"><title>222301</title></rect>
<text x="185" y="580" font-family="arial" font-size="14" fill="#333" stroke="none" stroke-width="0" text-anchor="middle" dominant-baseline="alphabetic">Jan</text><rect x="265" y="213.23209090909" width="100" height="336.76790909091" fill="yellow" fill-opacity="1" stroke="none" stroke-width="0" rx="0" ry="0"><title>189242</title></rect>
<text x="315" y="580" font-family="arial" font-size="14" fill="#333" stroke="none" stroke-width="0" text-anchor="middle" dominant-baseline="alphabetic">Feb</text><rect x="395" y="428.78845454545" width="100" height="121.21154545455" fill="red" fill-opacity="1" stroke="none" stroke-width="0" rx="0" ry="0"><title>144922</title></rect>
<text x="445" y="580" font-family="arial" font-size="14" fill="#333" stroke="none" stroke-width="0" text-anchor="middle" dominant-baseline="alphabetic">March</text><rect x="525" y="52.445136363636" width="100" height="497.55486363636" fill="lightgreen" fill-opacity="1" stroke="none" stroke-width="0" rx="0" ry="0"><title>222301</title></rect>
<text x="575" y="580" font-family="arial" font-size="14" fill="#333" stroke="none" stroke-width="0" text-anchor="middle" dominant-baseline="alphabetic">Apr</text><rect x="655" y="52.445136363636" width="100" height="497.55486363636" fill="lightgreen" fill-opacity="1" stroke="none" stroke-width="0" rx="0" ry="0"><title>222301</title></rect>
<text x="705" y="580" font-family="arial" font-size="14" fill="#333" stroke="none" stroke-width="0" text-anchor="middle" dominant-baseline="alphabetic">May</text>
    <line x1="120" y1="160.90909090909" x2="770" y2="160.90909090909" stroke="green" stroke-dasharray="" stroke-width="2" />
<text x="125" y="178.90909090909" font-family="arial" font-size="14" fill="green" stroke="none" stroke-width="0" text-anchor="start" dominant-baseline="alphabetic">Target</text><line x1="120" y1="404.09090909091" x2="770" y2="404.09090909091" stroke="red" stroke-dasharray="" stroke-width="2" />
<text x="125" y="422.09090909091" font-family="arial" font-size="14" fill="red" stroke="none" stroke-width="0" text-anchor="start" dominant-baseline="alphabetic">Loss</text>
</svg>