<svg xmlns="http://www.w3.org/2000/svg" width="800" height="600" viewBox="0 0 800 600">
    <rect x="0" y="0" width="800" height="600" fill="white" fill-opacity="1" stroke="none" stroke-width="0" rx="0" ry="0"/>
    <text x="45" y="555" font-family="arial" font-size="14" fill="black" stroke="none" stroke-width="0" text-anchor="end" dominant-baseline="alphabetic" alignment-baseline="auto">0</text><text x="45" y="450" font-family="arial" font-size="14" fill="black" stroke="none" stroke-width="0" text-anchor="end" dominant-baseline="alphabetic" alignment-baseline="auto">12</text><text x="45" y="345" font-family="arial" font-size="14" fill="black" stroke="none" stroke-width="0" text-anchor="end" dominant-baseline="alphabetic" alignment-baseline="auto">24</text><text x="45" y="240" font-family="arial" font-size="14" fill="black" stroke="none" stroke-width="0" text-anchor="end" dominant-baseline="alphabetic" alignment-baseline="auto">36</text><text x="45" y="135" font-family="arial" font-size="14" fill="black" stroke="none" stroke-width="0" text-anchor="end" dominant-baseline="alphabetic" alignment-baseline="auto">48</text><text x="45" y="30" font-family="arial" font-size="14" fill="black" stroke="none" stroke-width="0" text-anchor="end" dominant-baseline="alphabetic" alignment-baseline="auto">60</text>
    <line x1="55" y1="550" x2="770" y2="550" stroke="black" stroke-dasharray="none" stroke-width="1" stroke-opacity="1.000000" /><text x="55" y="575" font-family="arial" font-size="14" fill="black" stroke="none" stroke-width="0" text-anchor="middle" dominant-baseline="alphabetic" alignment-baseline="auto">0</text>
<line x1="55" y1="550" x2="55" y2="545" stroke="black" stroke-dasharray="none" stroke-width="1" stroke-opacity="1.000000" /><text x="174.16666666667" y="575" font-family="arial" font-size="14" fill="black" stroke="none" stroke-width="0" text-anchor="middle" dominant-baseline="alphabetic" alignment-baseline="auto">100</text>
<line x1="174.16666666667" y1="550" x2="174.16666666667" y2="545" stroke="black" stroke-dasharray="none" stroke-width="1" stroke-opacity="1.000000" /><text x="293.33333333333" y="575" font-family="arial" font-size="14" fill="black" stroke="none" stroke-width="0" text-anchor="middle" dominant-baseline="alphabetic" alignment-baseline="auto">200</text>
<line x1="293.33333333333" y1="550" x2="293.33333333333" y2="545" stroke="black" stroke-dasharray="none" stroke-width="1" stroke-opacity="1.000000" /><text x="412.5" y="575" font-family="arial" font-size="14" fill="black" stroke="none" stroke-width="0" text-anchor="middle" dominant-baseline="alphabetic" alignment-baseline="auto">300</text>
<line x1="412.5" y1="550" x2="412.5" y2="545" stroke="black" stroke-dasharray="none" stroke-width="1" stroke-opacity="1.000000" /><text x="531.66666666667" y="575" font-family="arial" font-size="14" fill="black" stroke="none" stroke-width="0" text-anchor="middle" dominant-baseline="alphabetic" alignment-baseline="auto">400</text>
<line x1="531.66666666667" y1="550" x2="531.66666666667" y2="545" stroke="black" stroke-dasharray="none" stroke-width="1" stroke-opacity="1.000000" /><text x="650.83333333333" y="575" font-family="arial" font-size="14" fill="black" stroke="none" stroke-width="0" text-anchor="middle" dominant-baseline="alphabetic" alignment-baseline="auto">500</text>
<line x1="650.83333333333" y1="550" x2="650.83333333333" y2="545" stroke="black" stroke-dasharray="none" stroke-width="1" stroke-opacity="1.000000" /><text x="770" y="575" font-family="arial" font-size="14" fill="black" stroke="none" stroke-width="0" text-anchor="middle" dominant-baseline="alphabetic" alignment-baseline="auto">600</text>
<line x1="770" y1="550" x2="770" y2="545" stroke="black" stroke-dasharray="none" stroke-width="1" stroke-opacity="1.000000" />
    <line x1="55" y1="445" x2="770" y2="445" stroke="black" stroke-dasharray="none" stroke-width="1" stroke-opacity="0.200000" /><line x1="55" y1="340" x2="770" y2="340" stroke="black" stroke-dasharray="none" stroke-width="1" stroke-opacity="0.200000" /><line x1="55" y1="235" x2="770" y2="235" stroke="black" stroke-dasharray="none" stroke-width="1" stroke-opacity="0.200000" /><line x1="55" y1="130" x2="770" y2="130" stroke="black" stroke-dasharray="none" stroke-width="1" stroke-opacity="0.200000" /><line x1="55" y1="25" x2="770" y2="25" stroke="black" stroke-dasharray="none" stroke-width="1" stroke-opacity="0.200000" />
    
    <path d="M 55,375 C 69.90,358.59 144.38,276.56 174.17,243.75 C 203.96,210.94 263.54,107.03 293.33,112.50 C 323.12,117.97 382.71,287.50 412.50,287.50 C 442.29,287.50 501.87,128.91 531.67,112.50 C 561.46,96.09 621.04,134.38 650.83,156.25 C 680.62,178.12 755.10,271.09 770.00,287.50 L 770,550 L 55,550 Z" fill="rgba(75, 192, 192, 0.3)" stroke="none" stroke-width="0" />
<path d="M 55,375 C 69.90,358.59 144.38,276.56 174.17,243.75 C 203.96,210.94 263.54,107.03 293.33,112.50 C 323.12,117.97 382.71,287.50 412.50,287.50 C 442.29,287.50 501.87,128.91 531.67,112.50 C 561.46,96.09 621.04,134.38 650.83,156.25 C 680.62,178.12 755.10,271.09 770.00,287.50" fill="none" stroke="rgb(75, 192, 192)" stroke-width="5" />
<path d="M 55,462.5 H 174.16666666667 V 375 H 293.33333333333 V 418.75 H 412.5 V 331.25 H 531.66666666667 V 375 H 650.83333333333 V 243.75 H 770 V 243.75 L 770,550 L 55,550 Z" fill="rgba(255, 99, 132, 0.3)" stroke="none" stroke-width="0" />
<path d="M 55,462.5 H 174.16666666667 V 375 H 293.33333333333 V 418.75 H 412.5 V 331.25 H 531.66666666667 V 375 H 650.83333333333 V 243.75 H 770 V 243.75" fill="none" stroke="rgb(255, 99, 132)" stroke-width="5" />
<path d="M 55,462.5 L 174.16666666667,200 L 293.33333333333,375 L 412.5,112.5 L 531.66666666667,287.5 L 650.83333333333,25 L 770,200 L 770,550 L 55,550 Z" fill="rgba(54, 162, 235, 0.3)" stroke="none" stroke-width="0" />
<path d="M 55,462.5 L 174.16666666667,200 L 293.33333333333,375 L 412.5,112.5 L 531.66666666667,287.5 L 650.83333333333,25 L 770,200" fill="none" stroke="rgb(54, 162, 235)" stroke-width="5" />

    
</svg>