<svg xmlns="http://www.w3.org/2000/svg" width="800" height="600" viewBox="0 0 800 600">
    <rect x="0" y="0" width="800" height="600" fill="white" fill-opacity="1" stroke="none" stroke-width="0" rx="0" ry="0"/>
    <text x="50" y="555" font-family="arial" font-size="14" fill="black" stroke="none" stroke-width="0" text-anchor="end" dominant-baseline="alphabetic" alignment-baseline="auto">0</text><text x="50" y="450" font-family="arial" font-size="14" fill="black" stroke="none" stroke-width="0" text-anchor="end" dominant-baseline="alphabetic" alignment-baseline="auto">26</text><text x="50" y="345" font-family="arial" font-size="14" fill="black" stroke="none" stroke-width="0" text-anchor="end" dominant-baseline="alphabetic" alignment-baseline="auto">51</text><text x="50" y="240" font-family="arial" font-size="14" fill="black" stroke="none" stroke-width="0" text-anchor="end" dominant-baseline="alphabetic" alignment-baseline="auto">77</text><text x="50" y="135" font-family="arial" font-size="14" fill="black" stroke="none" stroke-width="0" text-anchor="end" dominant-baseline="alphabetic" alignment-baseline="auto">102</text><text x="50" y="30" font-family="arial" font-size="14" fill="black" stroke="none" stroke-width="0" text-anchor="end" dominant-baseline="alphabetic" alignment-baseline="auto">128</text>
    <line x1="60" y1="550" x2="770" y2="550" stroke="black" stroke-dasharray="none" stroke-width="1" stroke-opacity="1.000000" /><text x="60" y="575" font-family="arial" font-size="14" fill="black" stroke="none" stroke-width="0" text-anchor="middle" dominant-baseline="alphabetic" alignment-baseline="auto">0</text>
<line x1="60" y1="550" x2="60" y2="545" stroke="black" stroke-dasharray="none" stroke-width="1" stroke-opacity="1.000000" /><text x="148.75" y="575" font-family="arial" font-size="14" fill="black" stroke="none" stroke-width="0" text-anchor="middle" dominant-baseline="alphabetic" alignment-baseline="auto">50</text>
<line x1="148.75" y1="550" x2="148.75" y2="545" stroke="black" stroke-dasharray="none" stroke-width="1" stroke-opacity="1.000000" /><text x="237.5" y="575" font-family="arial" font-size="14" fill="black" stroke="none" stroke-width="0" text-anchor="middle" dominant-baseline="alphabetic" alignment-baseline="auto">100</text>
<line x1="237.5" y1="550" x2="237.5" y2="545" stroke="black" stroke-dasharray="none" stroke-width="1" stroke-opacity="1.000000" /><text x="326.25" y="575" font-family="arial" font-size="14" fill="black" stroke="none" stroke-width="0" text-anchor="middle" dominant-baseline="alphabetic" alignment-baseline="auto">150</text>
<line x1="326.25" y1="550" x2="326.25" y2="545" stroke="black" stroke-dasharray="none" stroke-width="1" stroke-opacity="1.000000" /><text x="415" y="575" font-family="arial" font-size="14" fill="black" stroke="none" stroke-width="0" text-anchor="middle" dominant-baseline="alphabetic" alignment-baseline="auto">200</text>
<line x1="415" y1="550" x2="415" y2="545" stroke="black" stroke-dasharray="none" stroke-width="1" stroke-opacity="1.000000" /><text x="503.75" y="575" font-family="arial" font-size="14" fill="black" stroke="none" stroke-width="0" text-anchor="middle" dominant-baseline="alphabetic" alignment-baseline="auto">250</text>
<line x1="503.75" y1="550" x2="503.75" y2="545" stroke="black" stroke-dasharray="none" stroke-width="1" stroke-opacity="1.000000" /><text x="592.5" y="575" font-family="arial" font-size="14" fill="black" stroke="none" stroke-width="0" text-anchor="middle" dominant-baseline="alphabetic" alignment-baseline="auto">300</text>
<line x1="592.5" y1="550" x2="592.5" y2="545" stroke="black" stroke-dasharray="none" stroke-width="1" stroke-opacity="1.000000" /><text x="681.25" y="575" font-family="arial" font-size="14" fill="black" stroke="none" stroke-width="0" text-anchor="middle" dominant-baseline="alphabetic" alignment-baseline="auto">350</text>
<line x1="681.25" y1="550" x2="681.25" y2="545" stroke="black" stroke-dasharray="none" stroke-width="1" stroke-opacity="1.000000" /><text x="770" y="575" font-family="arial" font-size="14" fill="black" stroke="none" stroke-width="0" text-anchor="middle" dominant-baseline="alphabetic" alignment-baseline="auto">400</text>
<line x1="770" y1="550" x2="770" y2="545" stroke="black" stroke-dasharray="none" stroke-width="1" stroke-opacity="1.000000" />
    <line x1="60" y1="445" x2="770" y2="445" stroke="black" stroke-dasharray="none" stroke-width="1" stroke-opacity="0.200000" /><line x1="60" y1="340" x2="770" y2="340" stroke="black" stroke-dasharray="none" stroke-width="1" stroke-opacity="0.200000" /><line x1="60" y1="235" x2="770" y2="235" stroke="black" stroke-dasharray="none" stroke-width="1" stroke-opacity="0.200000" /><line x1="60" y1="130" x2="770" y2="130" stroke="black" stroke-dasharray="none" stroke-width="1" stroke-opacity="0.200000" /><line x1="60" y1="25" x2="770" y2="25" stroke="black" stroke-dasharray="none" stroke-width="1" stroke-opacity="0.200000" />
    
    <path d="M 60,550 C 71.09,539.75 126.56,470.53 148.75,467.97 C 170.94,465.41 215.31,532.06 237.50,529.49 C 259.69,526.93 304.06,450.02 326.25,447.46 C 348.44,444.90 392.81,511.55 415.00,508.98 C 437.19,506.42 481.56,429.52 503.75,426.95 C 525.94,424.39 570.31,485.91 592.50,488.48 C 614.69,491.04 659.06,457.71 681.25,447.46 C 703.44,437.21 758.91,411.57 770.00,406.45" fill="none" stroke="red" stroke-width="5" />
<path d="M 60,541.796875 C 74.79,540.43 119.17,537.70 148.75,533.59 C 178.33,529.49 207.92,525.39 237.50,517.19 C 267.08,508.98 296.67,500.78 326.25,484.38 C 355.83,467.97 385.42,429.69 415.00,418.75 C 444.58,407.81 474.17,440.62 503.75,418.75 C 533.33,396.88 562.92,331.25 592.50,287.50 C 622.08,243.75 651.67,200.00 681.25,156.25 C 710.83,112.50 755.21,46.88 770.00,25.00" fill="none" stroke="blue" stroke-width="5" />
<path d="M 60,508.984375 C 77.75,500.78 113.25,467.97 148.75,467.97 C 184.25,467.97 202.00,492.58 237.50,508.98 C 273.00,525.39 290.75,550.00 326.25,550.00 C 361.75,550.00 379.50,525.39 415.00,508.98 C 450.50,492.58 468.25,467.97 503.75,467.97 C 539.25,467.97 557.00,496.68 592.50,508.98 C 628.00,521.29 645.75,521.29 681.25,529.49 C 716.75,537.70 752.25,545.90 770.00,550.00" fill="none" stroke="green" stroke-width="5" />
<path d="M 60,529.4921875 C 72.68,523.63 123.39,503.12 148.75,488.48 C 174.11,473.83 212.14,435.74 237.50,426.95 C 262.86,418.16 300.89,421.09 326.25,426.95 C 351.61,432.81 389.64,473.83 415.00,467.97 C 440.36,462.11 478.39,385.94 503.75,385.94 C 529.11,385.94 567.14,465.04 592.50,467.97 C 617.86,470.90 655.89,424.02 681.25,406.45 C 706.61,388.87 757.32,353.71 770.00,344.92" fill="none" stroke="purple" stroke-width="5" />

    
</svg>