<svg width="500" height="500" xmlns="http://www.w3.org/2000/svg">
    <rect x="0" y="0" width="500" height="500" fill="white" fill-opacity="1" stroke="none" stroke-width="0" rx="0" ry="0"><title></title></rect>
    <path d="M 295.2413526233,271.28896457825 L 495.2413526233,271.28896457825 A 200,200 0 0,1 422.72615057304,425.39161313341 Z" fill="#5B9BD5" stroke="none" stroke-width="0" />
<text x="415.88495961877" y="328.05953678693" font-family="arial" font-size="14" fill="#000" stroke="none" stroke-width="0" text-anchor="middle" dominant-baseline="middle" alignment-baseline="auto">Toys - 14%</text><path d="M 250,250 L 377.48479794974,404.10264855516 A 200,200 0 0,1 69.034589506796,164.84414168699 Z" fill="#ED7D31" stroke="none" stroke-width="0" />
<text x="168.27905951294" y="355.35400165009" font-family="arial" font-size="14" fill="#000" stroke="none" stroke-width="0" text-anchor="middle" dominant-baseline="middle" alignment-baseline="auto">Furniture - 43%</text><path d="M 250,250 L 69.034589506796,164.84414168699 A 200,200 0 0,1 212.52373708286,53.542549854262 Z" fill="#A5A5A5" stroke="none" stroke-width="0" />
<text x="168.27905951294" y="144.64599834991" font-family="arial" font-size="14" fill="#000" stroke="none" stroke-width="0" text-anchor="middle" dominant-baseline="middle" alignment-baseline="auto">Home - 15%</text><path d="M 250,250 L 212.52373708286,53.542549854262 A 200,200 0 0,1 450,250 Z" fill="#FFC001" stroke="none" stroke-width="0" />
<text x="334.98986529983" y="147.26490096323" font-family="arial" font-size="14" fill="#000" stroke="none" stroke-width="0" text-anchor="middle" dominant-baseline="middle" alignment-baseline="auto">Electronics - 28%</text>
</svg>