<svg width="800" height="600"  xmlns="http://www.w3.org/2000/svg">
    <rect width="800" height="600"  fill="white" /> 
    <text x="45" y="555" font-family="arial" font-size="14" fill="black" text-anchor="end">0</text><text x="45" y="450" font-family="arial" font-size="14" fill="black" text-anchor="end">14</text><text x="45" y="345" font-family="arial" font-size="14" fill="black" text-anchor="end">28</text><text x="45" y="240" font-family="arial" font-size="14" fill="black" text-anchor="end">42</text><text x="45" y="135" font-family="arial" font-size="14" fill="black" text-anchor="end">56</text><text x="45" y="30" font-family="arial" font-size="14" fill="black" text-anchor="end">70</text><text text-anchor="middle" font-family="arial" alignment-baseline="middle" transform="rotate(270, 20, 262.5)" x="20" y="262.5" font-size="14" fill="black"></text>
    <line x1="55" y1="550" x2="770" y2="550" stroke="black"/>    <text x="412.5" y="590" font-family="arial" font-size="14" text-anchor="middle"></text>
    <line x1="55" y1="550" x2="770" y2="550" stroke="#ccc" stroke-dasharray="" stroke-width="1" /><line x1="55" y1="445" x2="770" y2="445" stroke="#ccc" stroke-dasharray="" stroke-width="1" /><line x1="55" y1="340" x2="770" y2="340" stroke="#ccc" stroke-dasharray="" stroke-width="1" /><line x1="55" y1="235" x2="770" y2="235" stroke="#ccc" stroke-dasharray="" stroke-width="1" /><line x1="55" y1="130" x2="770" y2="130" stroke="#ccc" stroke-dasharray="" stroke-width="1" /><line x1="55" y1="25" x2="770" y2="25" stroke="#ccc" stroke-dasharray="" stroke-width="1" />
    
    <rect x="183.75" y="250" width="100" height="300" fill="green" fill-opacity="1" stroke="none" stroke-width="0" rx="0" ry="0"><title>40</title></rect>
<text x="233.75" y="540" font-family="Arial" font-size="16" fill="white" stroke="none" stroke-width="0" text-anchor="middle" dominant-baseline="alphabetic"></text>
<rect x="183.75" y="25" width="100" height="225" fill="red" fill-opacity="1" stroke="none" stroke-width="0" rx="0" ry="0"><title>30</title></rect>
<text x="233.75" y="240" font-family="Arial" font-size="16" fill="white" stroke="none" stroke-width="0" text-anchor="middle" dominant-baseline="alphabetic"></text>
<text x="233.75" y="580" font-family="arial" font-size="14" fill="#333" stroke="none" stroke-width="0" text-anchor="middle" dominant-baseline="alphabetic">Jan</text><rect x="541.25" y="250" width="100" height="300" fill="green" fill-opacity="1" stroke="none" stroke-width="0" rx="0" ry="0"><title>40</title></rect>
<text x="591.25" y="540" font-family="Arial" font-size="16" fill="white" stroke="none" stroke-width="0" text-anchor="middle" dominant-baseline="alphabetic">57%</text>
<rect x="541.25" y="25" width="100" height="225" fill="red" fill-opacity="1" stroke="none" stroke-width="0" rx="0" ry="0"><title>30</title></rect>
<text x="591.25" y="240" font-family="Arial" font-size="16" fill="white" stroke="none" stroke-width="0" text-anchor="middle" dominant-baseline="alphabetic">43%</text>
<text x="591.25" y="580" font-family="arial" font-size="14" fill="#333" stroke="none" stroke-width="0" text-anchor="middle" dominant-baseline="alphabetic">Feb</text>
    
</svg>