<svg width="800" height="600" viewBox="-20 -40 840 680" xmlns="http://www.w3.org/2000/svg">
    <rect width="840" height="680" x="-20" y="-40" fill="white" /> 
    <text x="45" y="605" font-family="arial" font-size="14" fill="black" text-anchor="end">0</text><text x="45" y="485" font-family="arial" font-size="14" fill="black" text-anchor="end">44,460</text><text x="45" y="365" font-family="arial" font-size="14" fill="black" text-anchor="end">88,920</text><text x="45" y="245" font-family="arial" font-size="14" fill="black" text-anchor="end">133,381</text><text x="45" y="125" font-family="arial" font-size="14" fill="black" text-anchor="end">177,841</text><text x="45" y="5" font-family="arial" font-size="14" fill="black" text-anchor="end">222,301</text><text text-anchor="middle" font-family="arial" alignment-baseline="middle" transform="rotate(270, 0, 300)" x="0" y="300" font-size="14" fill="black"></text>
    <line x1="55" y1="600" x2="800" y2="600" stroke="black"/>    <text x="427.5" y="630" font-family="arial" font-size="14" text-anchor="middle"></text>
    <line x1="55" y1="600" x2="800" y2="600" stroke="#ccc" stroke-dasharray="" stroke-width="1" /><line x1="55" y1="480" x2="800" y2="480" stroke="#ccc" stroke-dasharray="" stroke-width="1" /><line x1="55" y1="360" x2="800" y2="360" stroke="#ccc" stroke-dasharray="" stroke-width="1" /><line x1="55" y1="240" x2="800" y2="240" stroke="#ccc" stroke-dasharray="" stroke-width="1" /><line x1="55" y1="120" x2="800" y2="120" stroke="#ccc" stroke-dasharray="" stroke-width="1" /><line x1="55" y1="0" x2="800" y2="0" stroke="#ccc" stroke-dasharray="" stroke-width="1" />
    
    <rect x="129.16666666667" y="0" width="100" height="600" fill="#3498db" fill-opacity="1" stroke="none" stroke-width="0" rx="0" ry="0"><title>222301</title></rect>
<text x="179.16666666667" y="630" font-family="arial" font-size="14" fill="#333" stroke="none" stroke-width="0" text-anchor="middle" dominant-baseline="alphabetic">Jan</text><rect x="377.5" y="89.227668791413" width="100" height="510.77233120859" fill="#3498db" fill-opacity="1" stroke="none" stroke-width="0" rx="0" ry="0"><title>189242</title></rect>
<text x="427.5" y="630" font-family="arial" font-size="14" fill="#333" stroke="none" stroke-width="0" text-anchor="middle" dominant-baseline="alphabetic">Feb</text><rect x="625.83333333333" y="208.84926293629" width="100" height="391.15073706371" fill="#3498db" fill-opacity="1" stroke="none" stroke-width="0" rx="0" ry="0"><title>144922</title></rect>
<text x="675.83333333333" y="630" font-family="arial" font-size="14" fill="#333" stroke="none" stroke-width="0" text-anchor="middle" dominant-baseline="alphabetic">March</text>
    
</svg>