<svg width="800" height="600"  xmlns="http://www.w3.org/2000/svg">
    <rect width="800" height="600"  fill="white" /> 
    <text x="45" y="555" font-family="arial" font-size="14" fill="black" text-anchor="end">0</text><text x="45" y="448" font-family="arial" font-size="14" fill="black" text-anchor="end">5</text><text x="45" y="341" font-family="arial" font-size="14" fill="black" text-anchor="end">10</text><text x="45" y="234" font-family="arial" font-size="14" fill="black" text-anchor="end">14</text><text x="45" y="127" font-family="arial" font-size="14" fill="black" text-anchor="end">19</text><text x="45" y="20" font-family="arial" font-size="14" fill="black" text-anchor="end">24</text><text text-anchor="middle" font-family="arial" alignment-baseline="middle" transform="rotate(270, 20, 267.5)" x="20" y="267.5" font-size="14" fill="black"></text>
    <line x1="55" y1="550" x2="770" y2="550" stroke="black"/><text x="55" y="575" font-family="arial" font-size="14" text-anchor="middle">0</text>
<line x1="55" x2="55" y1="545" y2="545" stroke="black"/><text x="293.33333333333" y="575" font-family="arial" font-size="14" text-anchor="middle">100</text>
<line x1="293.33333333333" x2="293.33333333333" y1="545" y2="545" stroke="black"/><text x="531.66666666667" y="575" font-family="arial" font-size="14" text-anchor="middle">200</text>
<line x1="531.66666666667" x2="531.66666666667" y1="545" y2="545" stroke="black"/><text x="770" y="575" font-family="arial" font-size="14" text-anchor="middle">300</text>
<line x1="770" x2="770" y1="545" y2="545" stroke="black"/>    <text x="412.5" y="590" font-family="arial" font-size="14" text-anchor="middle"></text>
    <line x1="55" y1="550" x2="770" y2="550" stroke="#ccc" stroke-dasharray="" stroke-width="1" /><line x1="55" y1="443" x2="770" y2="443" stroke="#ccc" stroke-dasharray="" stroke-width="1" /><line x1="55" y1="336" x2="770" y2="336" stroke="#ccc" stroke-dasharray="" stroke-width="1" /><line x1="55" y1="229" x2="770" y2="229" stroke="#ccc" stroke-dasharray="" stroke-width="1" /><line x1="55" y1="122" x2="770" y2="122" stroke="#ccc" stroke-dasharray="" stroke-width="1" /><line x1="55" y1="15" x2="770" y2="15" stroke="#ccc" stroke-dasharray="" stroke-width="1" />
    
    <polyline points="55,550 293.33333333333,460.83333333333 531.66666666667,282.5 770,371.66666666667" fill="none" stroke="black" stroke-width="5" />
<circle cx="55" cy="550" r="10" fill="rgba(0, 0, 0, 0)" stroke="none" stroke-width="0"><title>0</title></circle><circle cx="293.33333333333" cy="460.83333333333" r="10" fill="rgba(0, 0, 0, 0)" stroke="none" stroke-width="0"><title>4</title></circle><circle cx="531.66666666667" cy="282.5" r="10" fill="rgba(0, 0, 0, 0)" stroke="none" stroke-width="0"><title>12</title></circle><circle cx="770" cy="371.66666666667" r="10" fill="rgba(0, 0, 0, 0)" stroke="none" stroke-width="0"><title>8</title></circle><polyline points="55,460.83333333333 293.33333333333,282.5 531.66666666667,15 770,393.95833333333" fill="none" stroke="blue" stroke-width="5" />
<circle cx="55" cy="460.83333333333" r="10" fill="rgba(0, 0, 0, 0)" stroke="none" stroke-width="0"><title>4</title></circle><circle cx="293.33333333333" cy="282.5" r="10" fill="rgba(0, 0, 0, 0)" stroke="none" stroke-width="0"><title>12</title></circle><circle cx="531.66666666667" cy="15" r="10" fill="rgba(0, 0, 0, 0)" stroke="none" stroke-width="0"><title>24</title></circle><circle cx="770" cy="393.95833333333" r="10" fill="rgba(0, 0, 0, 0)" stroke="none" stroke-width="0"><title>7</title></circle>
    
</svg>