<svg width="800" height="600" viewBox="-20 -40 840 680" xmlns="http://www.w3.org/2000/svg">
    <rect width="100%" height="100%" x="-20" y="-40" fill="white" /> 
    <text x="25" y="605" font-family="arial" font-size="14" fill="black" text-anchor="end">0</text><text x="25" y="485" font-family="arial" font-size="14" fill="black" text-anchor="end">2</text><text x="25" y="365" font-family="arial" font-size="14" fill="black" text-anchor="end">5</text><text x="25" y="245" font-family="arial" font-size="14" fill="black" text-anchor="end">7</text><text x="25" y="125" font-family="arial" font-size="14" fill="black" text-anchor="end">10</text><text x="25" y="5" font-family="arial" font-size="14" fill="black" text-anchor="end">12</text><text text-anchor="middle" font-family="arial" alignment-baseline="middle" transform="rotate(270, 10, 300)" x="10" y="300" font-size="14" fill="black"></text>
    <line x1="35" y1="600" x2="800" y2="600" stroke="black"/><text x="35" y="625" font-family="arial" font-size="14" text-anchor="middle">0</text>'<text x="290" y="625" font-family="arial" font-size="14" text-anchor="middle">100</text>'<text x="545" y="625" font-family="arial" font-size="14" text-anchor="middle">200</text>'<text x="800" y="625" font-family="arial" font-size="14" text-anchor="middle">300</text>'    <text x="417.5" y="630" font-family="arial" font-size="14" text-anchor="middle"></text>'
    <line x1="35" y1="600" x2="800" y2="600" stroke="#ccc" stroke-width="1"/><line x1="35" y1="480" x2="800" y2="480" stroke="#ccc" stroke-width="1"/><line x1="35" y1="360" x2="800" y2="360" stroke="#ccc" stroke-width="1"/><line x1="35" y1="240" x2="800" y2="240" stroke="#ccc" stroke-width="1"/><line x1="35" y1="120" x2="800" y2="120" stroke="#ccc" stroke-width="1"/><line x1="35" y1="0" x2="800" y2="0" stroke="#ccc" stroke-width="1"/>
    
        <polygon points="35,600 290,400 545,0 800,200 800,600 35,600 35,0" fill="rgba(0, 0, 0, 0)" stroke="none"/>
    <polyline points="35,600 290,400 545,0 800,200" fill="none" stroke="black" stroke-width="5"/>
        <circle cx="35" cy="600" r="0" fill="#000" />    <circle cx="290" cy="400" r="0" fill="#000" />    <circle cx="545" cy="0" r="0" fill="#000" />    <circle cx="800" cy="200" r="0" fill="#000" />
    
</svg>