<svg width="800" height="600"  xmlns="http://www.w3.org/2000/svg">
    <rect width="800" height="600"  fill="white" /> 
    <text x="70" y="555" font-family="arial" font-size="14" fill="black" text-anchor="end">0</text><text x="70" y="448" font-family="arial" font-size="14" fill="black" text-anchor="end">44,460</text><text x="70" y="341" font-family="arial" font-size="14" fill="black" text-anchor="end">88,920</text><text x="70" y="234" font-family="arial" font-size="14" fill="black" text-anchor="end">133,381</text><text x="70" y="127" font-family="arial" font-size="14" fill="black" text-anchor="end">177,841</text><text x="70" y="20" font-family="arial" font-size="14" fill="black" text-anchor="end">222,301</text><text text-anchor="middle" font-family="arial" alignment-baseline="middle" transform="rotate(270, 20, 267.5)" x="20" y="267.5" font-size="14" fill="black"></text>
    <line x1="80" y1="550" x2="770" y2="550" stroke="black"/>    <text x="425" y="590" font-family="arial" font-size="14" text-anchor="middle"></text>
    <line x1="80" y1="550" x2="770" y2="550" stroke="#ccc" stroke-dasharray="" stroke-width="1" /><line x1="80" y1="443" x2="770" y2="443" stroke="#ccc" stroke-dasharray="" stroke-width="1" /><line x1="80" y1="336" x2="770" y2="336" stroke="#ccc" stroke-dasharray="" stroke-width="1" /><line x1="80" y1="229" x2="770" y2="229" stroke="#ccc" stroke-dasharray="" stroke-width="1" /><line x1="80" y1="122" x2="770" y2="122" stroke="#ccc" stroke-dasharray="" stroke-width="1" /><line x1="80" y1="15" x2="770" y2="15" stroke="#ccc" stroke-dasharray="" stroke-width="1" />
    
    <rect x="145" y="15" width="100" height="535" fill="#3498db" fill-opacity="1" stroke="none" stroke-width="0" rx="0" ry="0"><title>222301</title></rect>
<text x="195" y="580" font-family="arial" font-size="14" fill="#333" stroke="none" stroke-width="0" text-anchor="middle" dominant-baseline="alphabetic">Jan</text><rect x="375" y="94.561338005677" width="100" height="455.43866199432" fill="#3498db" fill-opacity="1" stroke="none" stroke-width="0" rx="0" ry="0"><title>189242</title></rect>
<text x="425" y="580" font-family="arial" font-size="14" fill="#333" stroke="none" stroke-width="0" text-anchor="middle" dominant-baseline="alphabetic">Feb</text><rect x="605" y="201.22392611819" width="100" height="348.77607388181" fill="#3498db" fill-opacity="1" stroke="none" stroke-width="0" rx="0" ry="0"><title>144922</title></rect>
<text x="655" y="580" font-family="arial" font-size="14" fill="#333" stroke="none" stroke-width="0" text-anchor="middle" dominant-baseline="alphabetic">March</text>
    
</svg>