<svg width="800" height="600"  xmlns="http://www.w3.org/2000/svg">
    <rect width="800" height="600"  fill="white" /> 
    <text x="70" y="555" font-family="arial" font-size="14" fill="black" text-anchor="end">0</text><text x="70" y="450" font-family="arial" font-size="14" fill="black" text-anchor="end">44,460</text><text x="70" y="345" font-family="arial" font-size="14" fill="black" text-anchor="end">88,920</text><text x="70" y="240" font-family="arial" font-size="14" fill="black" text-anchor="end">133,381</text><text x="70" y="135" font-family="arial" font-size="14" fill="black" text-anchor="end">177,841</text><text x="70" y="30" font-family="arial" font-size="14" fill="black" text-anchor="end">222,301</text><text text-anchor="middle" font-family="arial" alignment-baseline="middle" transform="rotate(270, 20, 262.5)" x="20" y="262.5" font-size="14" fill="black"></text>
    <line x1="80" y1="550" x2="770" y2="550" stroke="black"/>    <text x="425" y="590" font-family="arial" font-size="14" text-anchor="middle"></text>
    <line x1="80" y1="550" x2="770" y2="550" stroke="#ccc" stroke-dasharray="" stroke-width="1" /><line x1="80" y1="445" x2="770" y2="445" stroke="#ccc" stroke-dasharray="" stroke-width="1" /><line x1="80" y1="340" x2="770" y2="340" stroke="#ccc" stroke-dasharray="" stroke-width="1" /><line x1="80" y1="235" x2="770" y2="235" stroke="#ccc" stroke-dasharray="" stroke-width="1" /><line x1="80" y1="130" x2="770" y2="130" stroke="#ccc" stroke-dasharray="" stroke-width="1" /><line x1="80" y1="25" x2="770" y2="25" stroke="#ccc" stroke-dasharray="" stroke-width="1" />
    
    <rect x="145" y="25" width="100" height="525" fill="#3498db" fill-opacity="1" stroke="none" stroke-width="0" rx="0" ry="0"><title>222301</title></rect>
<text x="195" y="580" font-family="arial" font-size="14" fill="#333" stroke="none" stroke-width="0" text-anchor="middle" dominant-baseline="alphabetic">Jan</text><rect x="375" y="103.07421019249" width="100" height="446.92578980751" fill="#3498db" fill-opacity="1" stroke="none" stroke-width="0" rx="0" ry="0"><title>189242</title></rect>
<text x="425" y="580" font-family="arial" font-size="14" fill="#333" stroke="none" stroke-width="0" text-anchor="middle" dominant-baseline="alphabetic">Feb</text><rect x="605" y="207.74310506925" width="100" height="342.25689493075" fill="#3498db" fill-opacity="1" stroke="none" stroke-width="0" rx="0" ry="0"><title>144922</title></rect>
<text x="655" y="580" font-family="arial" font-size="14" fill="#333" stroke="none" stroke-width="0" text-anchor="middle" dominant-baseline="alphabetic">March</text>
    
</svg>