<svg width="800" height="600"  xmlns="http://www.w3.org/2000/svg">
    <rect width="800" height="600"  fill="white" /> 
    <text x="70" y="570" font-family="arial" font-size="14" fill="black" text-anchor="end">0</text><text x="70" y="460" font-family="arial" font-size="14" fill="black" text-anchor="end">44,460</text><text x="70" y="350" font-family="arial" font-size="14" fill="black" text-anchor="end">88,920</text><text x="70" y="240" font-family="arial" font-size="14" fill="black" text-anchor="end">133,381</text><text x="70" y="130" font-family="arial" font-size="14" fill="black" text-anchor="end">177,841</text><text x="70" y="20" font-family="arial" font-size="14" fill="black" text-anchor="end">222,301</text><text text-anchor="middle" font-family="arial" alignment-baseline="middle" transform="rotate(270, 20, 275)" x="20" y="275" font-size="14" fill="black"></text>
    <line x1="80" y1="565" x2="770" y2="565" stroke="black"/>    <text x="425" y="595" font-family="arial" font-size="14" text-anchor="middle"></text>
    <line x1="80" y1="565" x2="770" y2="565" stroke="#ccc" stroke-dasharray="" stroke-width="1" /><line x1="80" y1="455" x2="770" y2="455" stroke="#ccc" stroke-dasharray="" stroke-width="1" /><line x1="80" y1="345" x2="770" y2="345" stroke="#ccc" stroke-dasharray="" stroke-width="1" /><line x1="80" y1="235" x2="770" y2="235" stroke="#ccc" stroke-dasharray="" stroke-width="1" /><line x1="80" y1="125" x2="770" y2="125" stroke="#ccc" stroke-dasharray="" stroke-width="1" /><line x1="80" y1="15" x2="770" y2="15" stroke="#ccc" stroke-dasharray="" stroke-width="1" />
    
    <rect x="145" y="15" width="100" height="550" fill="#3498db" fill-opacity="1" stroke="none" stroke-width="0" rx="0" ry="0"><title>222301</title></rect>
<text x="195" y="595" font-family="arial" font-size="14" fill="#333" stroke="none" stroke-width="0" text-anchor="middle" dominant-baseline="alphabetic">Jan</text><rect x="375" y="96.792029725462" width="100" height="468.20797027454" fill="#3498db" fill-opacity="1" stroke="none" stroke-width="0" rx="0" ry="0"><title>189242</title></rect>
<text x="425" y="595" font-family="arial" font-size="14" fill="#333" stroke="none" stroke-width="0" text-anchor="middle" dominant-baseline="alphabetic">Feb</text><rect x="605" y="206.4451576916" width="100" height="358.5548423084" fill="#3498db" fill-opacity="1" stroke="none" stroke-width="0" rx="0" ry="0"><title>144922</title></rect>
<text x="655" y="595" font-family="arial" font-size="14" fill="#333" stroke="none" stroke-width="0" text-anchor="middle" dominant-baseline="alphabetic">March</text>
    
</svg>