<svg width="800" height="600" viewBox="-20 -40 840 680" xmlns="http://www.w3.org/2000/svg">
    <rect width="840" height="680" x="-20" y="-40" fill="white" /> 
    <text x="20" y="605" font-family="arial" font-size="14" fill="black" text-anchor="end">0</text><text x="20" y="485" font-family="arial" font-size="14" fill="black" text-anchor="end">5</text><text x="20" y="365" font-family="arial" font-size="14" fill="black" text-anchor="end">10</text><text x="20" y="245" font-family="arial" font-size="14" fill="black" text-anchor="end">14</text><text x="20" y="125" font-family="arial" font-size="14" fill="black" text-anchor="end">19</text><text x="20" y="5" font-family="arial" font-size="14" fill="black" text-anchor="end">24</text><text text-anchor="middle" font-family="arial" alignment-baseline="middle" transform="rotate(270, 0, 300)" x="0" y="300" font-size="14" fill="black"></text>
    <line x1="30" y1="600" x2="800" y2="600" stroke="black"/><text x="30" y="625" font-family="arial" font-size="14" text-anchor="middle">0</text>
<line x1="30" x2="30"  y1="600" y2="595" stroke="black"/>
<text x="286.66666666667" y="625" font-family="arial" font-size="14" text-anchor="middle">100</text>
<line x1="286.66666666667" x2="286.66666666667"  y1="600" y2="595" stroke="black"/>
<text x="543.33333333333" y="625" font-family="arial" font-size="14" text-anchor="middle">200</text>
<line x1="543.33333333333" x2="543.33333333333"  y1="600" y2="595" stroke="black"/>
<text x="800" y="625" font-family="arial" font-size="14" text-anchor="middle">300</text>
<line x1="800" x2="800"  y1="600" y2="595" stroke="black"/>
    <text x="415" y="630" font-family="arial" font-size="14" text-anchor="middle"></text>
    <line x1="30" y1="600" x2="800" y2="600" stroke="#ccc" stroke-dasharray="" stroke-width="1" /><line x1="30" y1="480" x2="800" y2="480" stroke="#ccc" stroke-dasharray="" stroke-width="1" /><line x1="30" y1="360" x2="800" y2="360" stroke="#ccc" stroke-dasharray="" stroke-width="1" /><line x1="30" y1="240" x2="800" y2="240" stroke="#ccc" stroke-dasharray="" stroke-width="1" /><line x1="30" y1="120" x2="800" y2="120" stroke="#ccc" stroke-dasharray="" stroke-width="1" /><line x1="30" y1="0" x2="800" y2="0" stroke="#ccc" stroke-dasharray="" stroke-width="1" />
    
    <polyline points="30,600 286.66666666667,500 543.33333333333,300 800,400" fill="none" stroke="black" stroke-width="5" />
<circle cx="30" cy="600" r="10" fill="rgba(0, 0, 0, 0)" stroke="none" stroke-width="0"><title>0</title></circle><circle cx="286.66666666667" cy="500" r="10" fill="rgba(0, 0, 0, 0)" stroke="none" stroke-width="0"><title>4</title></circle><circle cx="543.33333333333" cy="300" r="10" fill="rgba(0, 0, 0, 0)" stroke="none" stroke-width="0"><title>12</title></circle><circle cx="800" cy="400" r="10" fill="rgba(0, 0, 0, 0)" stroke="none" stroke-width="0"><title>8</title></circle><polyline points="30,500 286.66666666667,300 543.33333333333,0 800,425" fill="none" stroke="blue" stroke-width="5" />
<circle cx="30" cy="500" r="10" fill="rgba(0, 0, 0, 0)" stroke="none" stroke-width="0"><title>4</title></circle><circle cx="286.66666666667" cy="300" r="10" fill="rgba(0, 0, 0, 0)" stroke="none" stroke-width="0"><title>12</title></circle><circle cx="543.33333333333" cy="0" r="10" fill="rgba(0, 0, 0, 0)" stroke="none" stroke-width="0"><title>24</title></circle><circle cx="800" cy="425" r="10" fill="rgba(0, 0, 0, 0)" stroke="none" stroke-width="0"><title>7</title></circle>
    
</svg>