<svg width="800" height="600"  xmlns="http://www.w3.org/2000/svg">
    <rect width="800" height="600"  fill="white" /> 
    <text x="45" y="570" font-family="arial" font-size="14" fill="black" text-anchor="end">0</text><text x="45" y="460" font-family="arial" font-size="14" fill="black" text-anchor="end">5</text><text x="45" y="350" font-family="arial" font-size="14" fill="black" text-anchor="end">10</text><text x="45" y="240" font-family="arial" font-size="14" fill="black" text-anchor="end">14</text><text x="45" y="130" font-family="arial" font-size="14" fill="black" text-anchor="end">19</text><text x="45" y="20" font-family="arial" font-size="14" fill="black" text-anchor="end">24</text><text text-anchor="middle" font-family="arial" alignment-baseline="middle" transform="rotate(270, 20, 275)" x="20" y="275" font-size="14" fill="black"></text>
    <line x1="55" y1="565" x2="770" y2="565" stroke="black"/><text x="55" y="590" font-family="arial" font-size="14" text-anchor="middle">0</text>
<line x1="55" x2="55" y1="560" y2="560" stroke="black"/><text x="293.33333333333" y="590" font-family="arial" font-size="14" text-anchor="middle">100</text>
<line x1="293.33333333333" x2="293.33333333333" y1="560" y2="560" stroke="black"/><text x="531.66666666667" y="590" font-family="arial" font-size="14" text-anchor="middle">200</text>
<line x1="531.66666666667" x2="531.66666666667" y1="560" y2="560" stroke="black"/><text x="770" y="590" font-family="arial" font-size="14" text-anchor="middle">300</text>
<line x1="770" x2="770" y1="560" y2="560" stroke="black"/>    <text x="412.5" y="595" font-family="arial" font-size="14" text-anchor="middle"></text>
    <line x1="55" y1="565" x2="770" y2="565" stroke="#ccc" stroke-dasharray="" stroke-width="1" /><line x1="55" y1="455" x2="770" y2="455" stroke="#ccc" stroke-dasharray="" stroke-width="1" /><line x1="55" y1="345" x2="770" y2="345" stroke="#ccc" stroke-dasharray="" stroke-width="1" /><line x1="55" y1="235" x2="770" y2="235" stroke="#ccc" stroke-dasharray="" stroke-width="1" /><line x1="55" y1="125" x2="770" y2="125" stroke="#ccc" stroke-dasharray="" stroke-width="1" /><line x1="55" y1="15" x2="770" y2="15" stroke="#ccc" stroke-dasharray="" stroke-width="1" />
    
    <polyline points="55,565 293.33333333333,473.33333333333 531.66666666667,290 770,381.66666666667" fill="none" stroke="black" stroke-width="5" />
<circle cx="55" cy="565" r="10" fill="rgba(0, 0, 0, 0)" stroke="none" stroke-width="0"><title>0</title></circle><circle cx="293.33333333333" cy="473.33333333333" r="10" fill="rgba(0, 0, 0, 0)" stroke="none" stroke-width="0"><title>4</title></circle><circle cx="531.66666666667" cy="290" r="10" fill="rgba(0, 0, 0, 0)" stroke="none" stroke-width="0"><title>12</title></circle><circle cx="770" cy="381.66666666667" r="10" fill="rgba(0, 0, 0, 0)" stroke="none" stroke-width="0"><title>8</title></circle><polyline points="55,473.33333333333 293.33333333333,290 531.66666666667,15 770,404.58333333333" fill="none" stroke="blue" stroke-width="5" />
<circle cx="55" cy="473.33333333333" r="10" fill="rgba(0, 0, 0, 0)" stroke="none" stroke-width="0"><title>4</title></circle><circle cx="293.33333333333" cy="290" r="10" fill="rgba(0, 0, 0, 0)" stroke="none" stroke-width="0"><title>12</title></circle><circle cx="531.66666666667" cy="15" r="10" fill="rgba(0, 0, 0, 0)" stroke="none" stroke-width="0"><title>24</title></circle><circle cx="770" cy="404.58333333333" r="10" fill="rgba(0, 0, 0, 0)" stroke="none" stroke-width="0"><title>7</title></circle>
    
</svg>