<svg xmlns="http://www.w3.org/2000/svg" width="800" height="600">
    <rect x="0" y="0" width="800" height="600" fill="white" fill-opacity="1" stroke="none" stroke-width="0" rx="0" ry="0"><title></title></rect>
    <text x="50" y="555" font-family="arial" font-size="14" fill="black" stroke="none" stroke-width="0" text-anchor="end" dominant-baseline="alphabetic" alignment-baseline="auto">0</text><text x="50" y="450" font-family="arial" font-size="14" fill="black" stroke="none" stroke-width="0" text-anchor="end" dominant-baseline="alphabetic" alignment-baseline="auto">26</text><text x="50" y="345" font-family="arial" font-size="14" fill="black" stroke="none" stroke-width="0" text-anchor="end" dominant-baseline="alphabetic" alignment-baseline="auto">51</text><text x="50" y="240" font-family="arial" font-size="14" fill="black" stroke="none" stroke-width="0" text-anchor="end" dominant-baseline="alphabetic" alignment-baseline="auto">77</text><text x="50" y="135" font-family="arial" font-size="14" fill="black" stroke="none" stroke-width="0" text-anchor="end" dominant-baseline="alphabetic" alignment-baseline="auto">102</text><text x="50" y="30" font-family="arial" font-size="14" fill="black" stroke="none" stroke-width="0" text-anchor="end" dominant-baseline="alphabetic" alignment-baseline="auto">128</text><text x="20" y="262.5" font-family="arial" font-size="14" fill="black" stroke="none" stroke-width="0" text-anchor="middle" dominant-baseline="alphabetic" alignment-baseline="middle" transform="rotate(270, 20, 262.5)"></text>
    <line x1="60" y1="550" x2="770" y2="550" stroke="black" stroke-dasharray="none" stroke-width="1" /><text x="60" y="575" font-family="arial" font-size="14" fill="black" stroke="none" stroke-width="0" text-anchor="middle" dominant-baseline="alphabetic" alignment-baseline="auto">0</text>
<line x1="60" y1="550" x2="60" y2="545" stroke="black" stroke-dasharray="none" stroke-width="1" /><text x="148.75" y="575" font-family="arial" font-size="14" fill="black" stroke="none" stroke-width="0" text-anchor="middle" dominant-baseline="alphabetic" alignment-baseline="auto">50</text>
<line x1="148.75" y1="550" x2="148.75" y2="545" stroke="black" stroke-dasharray="none" stroke-width="1" /><text x="237.5" y="575" font-family="arial" font-size="14" fill="black" stroke="none" stroke-width="0" text-anchor="middle" dominant-baseline="alphabetic" alignment-baseline="auto">100</text>
<line x1="237.5" y1="550" x2="237.5" y2="545" stroke="black" stroke-dasharray="none" stroke-width="1" /><text x="326.25" y="575" font-family="arial" font-size="14" fill="black" stroke="none" stroke-width="0" text-anchor="middle" dominant-baseline="alphabetic" alignment-baseline="auto">150</text>
<line x1="326.25" y1="550" x2="326.25" y2="545" stroke="black" stroke-dasharray="none" stroke-width="1" /><text x="415" y="575" font-family="arial" font-size="14" fill="black" stroke="none" stroke-width="0" text-anchor="middle" dominant-baseline="alphabetic" alignment-baseline="auto">200</text>
<line x1="415" y1="550" x2="415" y2="545" stroke="black" stroke-dasharray="none" stroke-width="1" /><text x="503.75" y="575" font-family="arial" font-size="14" fill="black" stroke="none" stroke-width="0" text-anchor="middle" dominant-baseline="alphabetic" alignment-baseline="auto">250</text>
<line x1="503.75" y1="550" x2="503.75" y2="545" stroke="black" stroke-dasharray="none" stroke-width="1" /><text x="592.5" y="575" font-family="arial" font-size="14" fill="black" stroke="none" stroke-width="0" text-anchor="middle" dominant-baseline="alphabetic" alignment-baseline="auto">300</text>
<line x1="592.5" y1="550" x2="592.5" y2="545" stroke="black" stroke-dasharray="none" stroke-width="1" /><text x="681.25" y="575" font-family="arial" font-size="14" fill="black" stroke="none" stroke-width="0" text-anchor="middle" dominant-baseline="alphabetic" alignment-baseline="auto">350</text>
<line x1="681.25" y1="550" x2="681.25" y2="545" stroke="black" stroke-dasharray="none" stroke-width="1" /><text x="770" y="575" font-family="arial" font-size="14" fill="black" stroke="none" stroke-width="0" text-anchor="middle" dominant-baseline="alphabetic" alignment-baseline="auto">400</text>
<line x1="770" y1="550" x2="770" y2="545" stroke="black" stroke-dasharray="none" stroke-width="1" /><text x="415" y="590" font-family="arial" font-size="14" fill="black" stroke="none" stroke-width="0" text-anchor="middle" dominant-baseline="alphabetic" alignment-baseline="auto"></text>
    <line x1="60" y1="550" x2="770" y2="550" stroke="#ccc" stroke-dasharray="none" stroke-width="1" /><line x1="60" y1="445" x2="770" y2="445" stroke="#ccc" stroke-dasharray="none" stroke-width="1" /><line x1="60" y1="340" x2="770" y2="340" stroke="#ccc" stroke-dasharray="none" stroke-width="1" /><line x1="60" y1="235" x2="770" y2="235" stroke="#ccc" stroke-dasharray="none" stroke-width="1" /><line x1="60" y1="130" x2="770" y2="130" stroke="#ccc" stroke-dasharray="none" stroke-width="1" /><line x1="60" y1="25" x2="770" y2="25" stroke="#ccc" stroke-dasharray="none" stroke-width="1" />
    
    <path d="M 60,550 C 71.09,539.75 126.56,470.53 148.75,467.97 C 170.94,465.41 215.31,532.06 237.50,529.49 C 259.69,526.93 304.06,450.02 326.25,447.46 C 348.44,444.90 392.81,511.55 415.00,508.98 C 437.19,506.42 481.56,429.52 503.75,426.95 C 525.94,424.39 570.31,485.91 592.50,488.48 C 614.69,491.04 659.06,457.71 681.25,447.46 C 703.44,437.21 758.91,411.57 770.00,406.45" fill="none" stroke="red" stroke-width="5" />
<circle cx="60" cy="550" r="10" fill="rgba(0, 0, 0, 0)" stroke="none" stroke-width="0"><title>0</title></circle><circle cx="148.75" cy="467.96875" r="10" fill="rgba(0, 0, 0, 0)" stroke="none" stroke-width="0"><title>20</title></circle><circle cx="237.5" cy="529.4921875" r="10" fill="rgba(0, 0, 0, 0)" stroke="none" stroke-width="0"><title>5</title></circle><circle cx="326.25" cy="447.4609375" r="10" fill="rgba(0, 0, 0, 0)" stroke="none" stroke-width="0"><title>25</title></circle><circle cx="415" cy="508.984375" r="10" fill="rgba(0, 0, 0, 0)" stroke="none" stroke-width="0"><title>10</title></circle><circle cx="503.75" cy="426.953125" r="10" fill="rgba(0, 0, 0, 0)" stroke="none" stroke-width="0"><title>30</title></circle><circle cx="592.5" cy="488.4765625" r="10" fill="rgba(0, 0, 0, 0)" stroke="none" stroke-width="0"><title>15</title></circle><circle cx="681.25" cy="447.4609375" r="10" fill="rgba(0, 0, 0, 0)" stroke="none" stroke-width="0"><title>25</title></circle><circle cx="770" cy="406.4453125" r="10" fill="rgba(0, 0, 0, 0)" stroke="none" stroke-width="0"><title>35</title></circle><path d="M 60,541.796875 C 76.90,540.43 127.62,537.70 161.43,533.59 C 195.24,529.49 229.05,525.39 262.86,517.19 C 296.67,508.98 330.48,500.78 364.29,484.38 C 398.10,467.97 431.90,451.56 465.71,418.75 C 499.52,385.94 533.33,331.25 567.14,287.50 C 600.95,243.75 634.76,200.00 668.57,156.25 C 702.38,112.50 753.10,46.88 770.00,25.00" fill="none" stroke="blue" stroke-width="5" />
<circle cx="60" cy="541.796875" r="10" fill="rgba(0, 0, 0, 0)" stroke="none" stroke-width="0"><title>2</title></circle><circle cx="161.42857142857" cy="533.59375" r="10" fill="rgba(0, 0, 0, 0)" stroke="none" stroke-width="0"><title>4</title></circle><circle cx="262.85714285714" cy="517.1875" r="10" fill="rgba(0, 0, 0, 0)" stroke="none" stroke-width="0"><title>8</title></circle><circle cx="364.28571428571" cy="484.375" r="10" fill="rgba(0, 0, 0, 0)" stroke="none" stroke-width="0"><title>16</title></circle><circle cx="465.71428571429" cy="418.75" r="10" fill="rgba(0, 0, 0, 0)" stroke="none" stroke-width="0"><title>32</title></circle><circle cx="567.14285714286" cy="287.5" r="10" fill="rgba(0, 0, 0, 0)" stroke="none" stroke-width="0"><title>64</title></circle><circle cx="668.57142857143" cy="156.25" r="10" fill="rgba(0, 0, 0, 0)" stroke="none" stroke-width="0"><title>96</title></circle><circle cx="770" cy="25" r="10" fill="rgba(0, 0, 0, 0)" stroke="none" stroke-width="0"><title>128</title></circle><path d="M 60,508.984375 C 77.75,500.78 113.25,467.97 148.75,467.97 C 184.25,467.97 202.00,492.58 237.50,508.98 C 273.00,525.39 290.75,550.00 326.25,550.00 C 361.75,550.00 379.50,525.39 415.00,508.98 C 450.50,492.58 468.25,467.97 503.75,467.97 C 539.25,467.97 557.00,496.68 592.50,508.98 C 628.00,521.29 645.75,521.29 681.25,529.49 C 716.75,537.70 752.25,545.90 770.00,550.00" fill="none" stroke="green" stroke-width="5" />
<circle cx="60" cy="508.984375" r="10" fill="rgba(0, 0, 0, 0)" stroke="none" stroke-width="0"><title>10</title></circle><circle cx="148.75" cy="467.96875" r="10" fill="rgba(0, 0, 0, 0)" stroke="none" stroke-width="0"><title>20</title></circle><circle cx="237.5" cy="508.984375" r="10" fill="rgba(0, 0, 0, 0)" stroke="none" stroke-width="0"><title>10</title></circle><circle cx="326.25" cy="550" r="10" fill="rgba(0, 0, 0, 0)" stroke="none" stroke-width="0"><title>0</title></circle><circle cx="415" cy="508.984375" r="10" fill="rgba(0, 0, 0, 0)" stroke="none" stroke-width="0"><title>10</title></circle><circle cx="503.75" cy="467.96875" r="10" fill="rgba(0, 0, 0, 0)" stroke="none" stroke-width="0"><title>20</title></circle><circle cx="592.5" cy="508.984375" r="10" fill="rgba(0, 0, 0, 0)" stroke="none" stroke-width="0"><title>10</title></circle><circle cx="681.25" cy="529.4921875" r="10" fill="rgba(0, 0, 0, 0)" stroke="none" stroke-width="0"><title>5</title></circle><circle cx="770" cy="550" r="10" fill="rgba(0, 0, 0, 0)" stroke="none" stroke-width="0"><title>0</title></circle><path d="M 60,529.4921875 C 74.49,523.63 132.45,503.12 161.43,488.48 C 190.41,473.83 233.88,424.02 262.86,426.95 C 291.84,429.88 335.31,514.84 364.29,508.98 C 393.27,503.12 436.73,391.80 465.71,385.94 C 494.69,380.08 538.16,465.04 567.14,467.97 C 596.12,470.90 639.59,424.02 668.57,406.45 C 697.55,388.87 755.51,353.71 770.00,344.92" fill="none" stroke="purple" stroke-width="5" />
<circle cx="60" cy="529.4921875" r="10" fill="rgba(0, 0, 0, 0)" stroke="none" stroke-width="0"><title>5</title></circle><circle cx="161.42857142857" cy="488.4765625" r="10" fill="rgba(0, 0, 0, 0)" stroke="none" stroke-width="0"><title>15</title></circle><circle cx="262.85714285714" cy="426.953125" r="10" fill="rgba(0, 0, 0, 0)" stroke="none" stroke-width="0"><title>30</title></circle><circle cx="364.28571428571" cy="508.984375" r="10" fill="rgba(0, 0, 0, 0)" stroke="none" stroke-width="0"><title>10</title></circle><circle cx="465.71428571429" cy="385.9375" r="10" fill="rgba(0, 0, 0, 0)" stroke="none" stroke-width="0"><title>40</title></circle><circle cx="567.14285714286" cy="467.96875" r="10" fill="rgba(0, 0, 0, 0)" stroke="none" stroke-width="0"><title>20</title></circle><circle cx="668.57142857143" cy="406.4453125" r="10" fill="rgba(0, 0, 0, 0)" stroke="none" stroke-width="0"><title>35</title></circle><circle cx="770" cy="344.921875" r="10" fill="rgba(0, 0, 0, 0)" stroke="none" stroke-width="0"><title>50</title></circle>
    
</svg>